<?xml version="1.0" ?><!DOCTYPE svg  PUBLIC '-//W3C//DTD SVG 1.1//EN'  'http://www.w3.org/Graphics/SVG/1.1/DTD/svg11.dtd'><svg height="512px" style="enable-background:new 0 0 512 512;" version="1.1" viewBox="0 0 512 512" width="512px" xml:space="preserve" xmlns="http://www.w3.org/2000/svg" xmlns:xlink="http://www.w3.org/1999/xlink"><g id="Interest_x2C__line-icon_x2C__pinterest_x2C__social_x2C__web"><g><path d="M286.153,17.928    c131.418,17.188,223.922,137.738,206.731,269.16C475.7,418.508,355.406,511.004,223.983,493.82    C92.565,476.633,0.061,356.334,17,224.917C34.179,93.496,154.729,0.992,286.153,17.928L286.153,17.928z M197.954,379.84    c-3.292-55.096,5.3-70.006,20.718-122.826c-32.346-59.395,67.733-95.537,42.974-19.211c-6.323,19.463-18.454,47.516,9.347,52.066    c57.117,9.604,76.577-86.942,28.053-114.743c-44.482-25.526-90.229-10.362-109.18,20.726c-2.023,3.03-2.778,6.569-4.545,9.604    c-18.705,38.917,17.934,85.926-1.777,75.061c-74.811-42.207-7.324-193.594,117.017-135.213    c132.43,62.171,1.515,235.293-58.637,156.944C237.629,314.383,215.139,382.111,197.954,379.84L197.954,379.84z" style="fill-rule:evenodd;clip-rule:evenodd;fill:#CB2128;"/><path d="M445.372,109.92c37.405,48.527,56.11,111.456,47.513,177.168    c-5.552,43.215-22.49,82.639-47.513,114.99H64.764C27.359,353.303,8.659,290.625,17,224.917    c5.803-43.471,22.742-82.648,47.513-114.997H445.372z M197.954,379.84c-3.292-55.096,5.3-70.006,20.718-122.826    c-32.346-59.395,67.733-95.537,42.974-19.211c-6.323,19.463-18.454,47.516,9.347,52.066    c57.117,9.604,76.577-86.942,28.053-114.743c-44.482-25.526-90.229-10.362-109.18,20.726c-2.023,3.03-2.778,6.569-4.545,9.604    c-18.705,38.917,17.934,85.926-1.777,75.061c-74.811-42.207-7.324-193.594,117.017-135.213    c132.43,62.171,1.515,235.293-58.637,156.944C237.629,314.383,215.139,382.111,197.954,379.84L197.954,379.84z" style="fill-rule:evenodd;clip-rule:evenodd;fill:#B02529;"/></g></g><g id="Layer_1"/></svg>